<?xml version="1.0" encoding="utf-8"?>
<!-- Generator: Adobe Illustrator 21.0.2, SVG Export Plug-In . SVG Version: 6.00 Build 0)  -->
<svg version="1.1" id="Layer_1" xmlns="http://www.w3.org/2000/svg" xmlns:xlink="http://www.w3.org/1999/xlink" x="0px" y="0px"
	 viewBox="0 0 288 72" style="enable-background:new 0 0 288 72;" xml:space="preserve">
<style type="text/css">
	.st0{fill:#ED1C25;stroke:#ED1C25;stroke-width:0.5;stroke-miterlimit:10;}
	.st1{fill:#ED1C25;stroke:#ED1C25;stroke-width:0.25;stroke-miterlimit:10;}
	.st2{font-family:'Papyrus';}
	.st3{font-size:35.2257px;}
</style>
<path class="st0" d="M243.8,56.5c1.2-0.9,2.9-6,2.8-7.5c1,2.8,2.5,5.6,3.1,8.5c1.2-3.1,0-5.9-0.3-9.3c1.5,1,9.1,6.3,10.7,7.5
	l-3.1-6.9c1,0.1,6.6,4.7,7.6,4.6l-2.5-8.4c1,1.2,6,4.4,7.6,4.1c-2.2-1.3-3.2-3.5-3.4-4.6c1.5,0.4,7.3,0.3,8.8-0.3
	c-1.5-1.3-5.4-3.7-6.3-5.4c2.1,1,4.3,1.9,6.3,1.2c2.3-0.7,3.7-3.1,4.7-5.3c-2.8,3.1-7.9,4-11.8,2.1c3.4,0,7.3-0.7,8.7-3.8
	c-4,2.4-9.4,2.2-13.2-0.6c2.2-0.1,4.6-0.9,6.5-2.1c-3.5,0.1-7.2-0.4-10.6-1.9c2.6,0,5.3-0.7,7.5-2.2c-3.8,0.6-7.6,0-11-1.6
	c1.9-0.1,3.8-1.5,4.8-3.2c-2.9,1.5-6.5,1.8-9.5,0.7c2.1-1.2,3.7-2.8,4.7-4.8c-2.8,1.6-6,2.5-9.3,2.2c1.2-1.3,1.9-2.9,2.5-4.7
	c-2.2,3.4-6.9,4.7-10.6,3.1c-0.9-0.4-1.6-1-2.6-1.2c-0.7-0.1-1.5-0.1-2.2,0c-2.6,0.3-5.1,0.7-7.8,1.5c-0.9,0.3-1.9,0.6-2.6,1
	c-0.6,0.3-1,0.9-1.6,1.2c-0.7,0.4-1.6,0.6-2.5,0.7c-2.3,0.3-4.6,0.6-6.9,0.9c-0.4,0.1-2.5-0.1-2.8,0.4c-0.3,0.4,0.7,2.1,0.9,2.5
	c0.9,1.9,1.9,3.7,3.1,5.3c0.6,0.9,1.3,1.6,1.9,2.4c0.4,0.6,1.8,1.5,1.9,2.1c-0.3-1-0.3-2.1-0.1-3.1c0.1,0.7,1,1.5,1.8,1.3
	c0.9,0,1.5-0.7,1.5-1.6c0,0.7,0.9,1.2,1.6,1s1.2-0.6,1.8-1.2c0.3,0.4,0.4,0.9,0.7,1.3c1,0.1,2.1-0.6,2.2-1.6
	c0.4,0.7,1.3,1.3,2.2,1.3c0-1,0-2.1,0-3.1c0.7,0.7,1.6,1.5,2.1,2.4c0.4,1,0.4,2.2-0.3,2.9s-2.4,0.3-2.4-0.7
	c-0.1,0.6-0.4,1.2-0.6,1.8c-0.7-0.1-1.5-0.3-2.2-0.7c-0.1,0.7-0.3,1.6-0.4,2.4c-0.7-0.3-1.6-0.7-2.5-1.2c0,0.7-0.1,1.3-0.1,2.1
	c-0.3-0.7-0.7-1.3-1.5-1.8c-0.1,0.4-0.4,0.9-0.6,1.3c-0.6-0.7-1.2-1.3-1.8-2.1c-0.7,0.7-0.3,2.1,0.1,2.9c0.9,1.6,1.6,3.4,2.5,5
	c0.4,1,1.6,2.2,2.5,1.5c-0.6-0.4-1.2-1.2-1-1.9c0.4,0.9,1.2,1.8,1.9,1.3c0.3-0.1,0.4-0.3,0.6-0.6c1.2-1.8,3.4-2.8,5.6-2.5
	c2.1,0.4,3.2-0.9,3.8,1.2s-1,3.4-1.6,5.4c1.3-1,5.4-1.9,5.4-3.5c-0.3,2.5-1.6,4.6-2.2,7.3c1.6,0.3,5.4-3.1,6.2-4.3L243.8,56.5z"/>
<text transform="matrix(1 1.977133e-03 -1.977133e-03 1 23.2616 47.9869)" class="st1 st2 st3">GO  BACK</text>
</svg>
