<?xml version="1.0" encoding="utf-8"?>
<!-- Generator: Adobe Illustrator 21.0.2, SVG Export Plug-In . SVG Version: 6.00 Build 0)  -->
<svg version="1.1" id="Layer_1" xmlns="http://www.w3.org/2000/svg" xmlns:xlink="http://www.w3.org/1999/xlink" x="0px" y="0px"
	 viewBox="0 0 288 72" style="enable-background:new 0 0 288 72;" xml:space="preserve">
<style type="text/css">
	.st0{fill:#F1001A;stroke:#FA000D;stroke-width:0.5;stroke-miterlimit:10;}
	.st1{fill:#F1001A;}
	.st2{font-family:'Papyrus';}
	.st3{font-size:33px;}
</style>
<path class="st0" d="M246.3,48.3c0.7,1.2,4.6,4.6,6.2,4.3c-0.6-2.8-1.9-4.8-2.2-7.3c0,1.6,4.1,2.5,5.4,3.5c-0.6-2.1-2.2-3.4-1.6-5.4
	c0.6-2.1,1.8-0.7,3.8-1.2c2.2-0.3,4.4,0.7,5.6,2.5c0.1,0.3,0.3,0.4,0.6,0.6c0.7,0.4,1.5-0.4,1.9-1.3c0.1,0.7-0.4,1.5-1,1.9
	c0.9,0.7,2.1-0.4,2.5-1.5c0.9-1.6,1.6-3.4,2.5-5c0.4-0.9,0.9-2.2,0.1-2.9c-0.6,0.7-1.2,1.3-1.8,2.1c-0.1-0.4-0.4-0.9-0.6-1.3
	c-0.7,0.4-1.2,1-1.5,1.8c0-0.7-0.1-1.3-0.1-2.1c-0.9,0.4-1.8,0.9-2.5,1.2c-0.1-0.7-0.3-1.6-0.4-2.4c-0.7,0.4-1.5,0.6-2.2,0.7
	c-0.1-0.6-0.4-1.2-0.6-1.8c0,1-1.6,1.5-2.4,0.7s-0.7-1.9-0.3-2.9c0.4-0.9,1.3-1.6,2.1-2.4c0,1,0,2.1,0,3.1c0.9,0,1.8-0.6,2.2-1.3
	c0.1,1,1.2,1.8,2.2,1.6c0.3-0.4,0.4-0.9,0.7-1.3c0.6,0.6,1,1,1.8,1.2s1.6-0.3,1.6-1c0,0.9,0.6,1.6,1.5,1.6c0.7,0.1,1.6-0.6,1.8-1.3
	c0.1,1,0.1,2.1-0.1,3.1c0.1-0.6,1.5-1.5,1.9-2.1c0.6-0.7,1.3-1.5,1.9-2.4c1.2-1.6,2.2-3.4,3.1-5.3c0.1-0.4,1.2-2.1,0.9-2.5
	c-0.3-0.6-2.4-0.3-2.8-0.4c-2.4-0.3-4.6-0.6-6.9-0.9c-0.9-0.1-1.8-0.3-2.5-0.7c-0.6-0.3-1-0.9-1.6-1.2c-0.7-0.4-1.8-0.7-2.6-1
	c-2.6-0.7-5.1-1.2-7.8-1.5c-0.7-0.1-1.5-0.1-2.2,0c-1,0.1-1.8,0.7-2.6,1.2c-3.7,1.6-8.4,0.3-10.6-3.1c0.6,1.8,1.3,3.4,2.5,4.7
	c-3.2,0.3-6.5-0.6-9.3-2.2c1,2.1,2.6,3.7,4.7,4.8c-3.1,1-6.6,0.7-9.5-0.7c1,1.8,2.9,3.1,4.8,3.2c-3.4,1.6-7.2,2.2-11,1.6
	c2.2,1.5,4.8,2.2,7.5,2.2c-3.4,1.5-7.1,2.1-10.6,1.9c1.9,1.2,4.3,1.9,6.5,2.1c-3.8,2.8-9.3,2.9-13.2,0.6c1.3,3.1,5.3,3.8,8.7,3.8
	c-3.8,1.9-9,1-11.7-2.1c1,2.2,2.4,4.6,4.7,5.3c2.1,0.7,4.3-0.1,6.3-1.2c-0.9,1.8-4.8,4.1-6.3,5.4c1.5,0.6,7.3,0.7,8.8,0.3
	c-0.1,1-1.2,3.2-3.4,4.6c1.6,0.3,6.6-2.9,7.6-4.1l-2.5,8.4c1,0.1,6.6-4.4,7.6-4.6l-3.1,6.9c1.6-1.2,9.3-6.5,10.7-7.5
	c-0.3,3.4-1.5,6.2-0.3,9.3c0.6-2.9,2.1-5.7,3.1-8.5c-0.1,1.5,1.6,6.6,2.8,7.5L246.3,48.3z"/>
<text transform="matrix(1 1.977133e-03 -1.977133e-03 1 32.5633 47.9869)" class="st1 st2 st3">THE  MAP</text>
</svg>
