<?xml version="1.0" encoding="utf-8"?>
<!-- Generator: Adobe Illustrator 21.0.2, SVG Export Plug-In . SVG Version: 6.00 Build 0)  -->
<svg version="1.1" id="Layer_1" xmlns="http://www.w3.org/2000/svg" xmlns:xlink="http://www.w3.org/1999/xlink" x="0px" y="0px"
	 viewBox="0 0 288 288" style="enable-background:new 0 0 288 288;" xml:space="preserve">
<style type="text/css">
	.st0{fill:#FF140D;stroke:#FA1400;stroke-miterlimit:10;}
	.st1{stroke:#000000;stroke-miterlimit:10;}
	.st2{fill:#FFFFFF;}
	.st3{font-family:'Papyrus';}
	.st4{font-size:34px;}
</style>
<path class="st0" d="M233.2,68.4c-3.2-0.6-6.4-1.2-9.2-2.8c-2.2-1.3-4-3.1-6.1-4.5c-2.9-1.9-6.2-2.9-9.6-3.7
	c-9.5-2.5-19.1-4.3-28.9-5.5c-2.7-0.3-5.4-0.6-8.1,0c-3.6,0.7-6.7,2.9-10,4.4c-13.4,6.2-31,0.9-38.8-11.6c1.9,6.3,5.1,12.2,9.2,17.3
	c-11.8,0.9-23.8-2.1-33.8-8.3c3.9,7.4,9.9,13.6,17.2,17.7c-11.4,3.7-24.2,2.8-34.9-2.6c3.5,6.6,10.5,11.3,18,12
	c-12.5,5.8-26.7,7.9-40.4,5.9c8.1,5.1,17.7,8,27.3,8.2c-12.3,5.3-25.8,7.8-39.1,7.1c7.2,4.4,15.6,7.1,24,7.6
	c-13.9,10.1-33.9,11-48.5,2.1c4.7,11.5,19.6,14.3,32,13.9c-14,7.3-32.7,4-43.5-7.6c4,8.1,8.9,16.9,17.4,19.7
	c7.6,2.5,15.9-0.6,23-4.3c-3.5,6.4-18,15.2-23,20.2c5.2,2.2,27.2,2.8,32.5,1c-0.3,4-4.5,12-12.5,17c5.7,1,24.2-10.7,28-15
	c0.3,4-7,16.4-9,20c1.8,0,14.2-6,16-6c-3.2,3.6-12.8,13.4-16,17c2.4,2.9,24.3-16.3,28-17c-4.7,7.4-11.3,16.6-16,24
	c7.2-4.5,8.1-10.1,14-10c-2,5-1.9,9.4-4,16c9.6-6.8,10-15,16-21c0,4.9,4,16,1,25c5.8-4.1,11.2-31.9,17-36c-0.9,12.2-5.5,22.6-1,34
	c1.9-10.8,4-12.8,8-23c-0.6,5.5,9.3,16,14,19c-4-13,1-10,0-24c1.7,3.9,14.3,20.1,16,24c2.2-5.9-1-8-2-14c-1.5-9.1-1-6,0-11
	c2.5,4.2,12.5,0.8,15,5c-2.3-10-7-18-8-27c0,6,15.3,9.4,20,13c-2.4-7.6-8.1-12.3-6-20c2.1-7.7,6.2-3,14.1-4.1s16.2,2.6,20.5,9.3
	c0.6,0.9,1.1,1.9,2,2.4c2.8,1.6,5.7-1.8,7-4.7c0.3,2.8-1.4,5.7-3.9,6.8c3.1,2.8,7.5-1.6,9.3-5.4c3-6.2,6-12.3,8.9-18.5
	c1.7-3.5,3.2-8.1,0.5-10.9c-2.2,2.5-4.5,5.1-6.7,7.6c-0.8-1.5-1.5-3.1-2.3-4.6c-2.5,1.5-4.5,3.7-5.6,6.4c-0.2-2.5-0.3-5-0.5-7.5
	c-3.1,1.5-6.3,3-9.4,4.5c-0.6-2.8-1.2-5.7-1.8-8.5c-2.6,1.4-5.4,2.2-8.3,2.5c-0.8-2.1-1.5-4.2-2.3-6.3c0,3.9-5.8,5.5-8.7,2.9
	c-2.8-2.6-2.7-7.3-1-10.7c1.7-3.4,4.7-6.1,7.3-8.9c0.1,3.8,0.2,7.6,0.2,11.3c3.3,0,6.4-1.9,8-4.8c0.5,3.8,4.5,6.7,8.2,6
	c0.9-1.5,1.8-3.1,2.7-4.6c1.9,2,4,4,6.6,4.5c2.7,0.5,6-1.3,5.8-4c-0.2,3,2.2,5.9,5.2,6.2c3,0.3,6-2,6.4-4.9
	c0.7,3.8,0.5,7.7-0.5,11.4c0.6-2.2,5.4-5.5,6.9-7.3c2.4-2.8,4.7-5.6,6.8-8.6c4.3-6,8.1-12.5,11.3-19.2c0.8-1.7,4.4-7.7,3.4-9.3
	c-1.2-1.9-8.4-1.3-10.4-1.5C250,71,241.6,69.9,233.2,68.4z"/>
<path class="st1" d="M214.1,72c-1.2-1-5.1-1.3-6.6-0.8c-4.1,1.2-12.5,2.2-16.7,2.6c4.3,1.4,14.8,6.2,19.4,6
	C214.1,79.7,217.8,74.9,214.1,72z"/>
<text transform="matrix(1 0 0 1 71.6934 130.937)" class="st2 st3 st4">START</text>
</svg>
