<?xml version="1.0" encoding="utf-8"?>
<!-- Generator: Adobe Illustrator 21.0.2, SVG Export Plug-In . SVG Version: 6.00 Build 0)  -->
<svg version="1.1" id="Layer_1" xmlns="http://www.w3.org/2000/svg" xmlns:xlink="http://www.w3.org/1999/xlink" x="0px" y="0px"
	 viewBox="0 0 200 350" style="enable-background:new 0 0 200 350;" xml:space="preserve">
<style type="text/css">
	.st0{fill:none;stroke:#020202;stroke-miterlimit:10;}
	.st1{fill:#FCE4ED;stroke:#020202;stroke-miterlimit:10;}
	.st2{fill:#E9F2D8;stroke:#020202;stroke-miterlimit:10;}
	.st3{opacity:0.58;}
	.st4{fill:#020202;}
	.st5{font-family:'Papyrus';}
	.st6{font-size:24.6879px;}
	.st7{opacity:0.58;fill:#020202;enable-background:new    ;}
	.st8{fill:#020202;stroke:#020202;stroke-width:0.5;stroke-miterlimit:10;}
	.st9{fill:#EE2D31;stroke:#E11D3C;stroke-width:0.5;stroke-miterlimit:10;}
	.st10{font-size:6.2842px;}
	.st11{fill:#F2EB51;stroke:#020202;stroke-width:0.5;stroke-miterlimit:10;}
	.st12{fill:#FFFFFF;stroke:#000000;stroke-width:0.75;stroke-miterlimit:10;}
	.st13{font-family:'MyriadPro-Regular';}
	.st14{font-size:5px;}
</style>
<path class="st0" d="M114.5,156c-0.2,1.3-2.1,2-2.8,1c0.2,2.5-0.8,5-2.6,6.8c0.7,1,1,2.2,0.9,3.4c-1.2-0.4-2.6-0.1-3.6,0.8
	c0.5,2.1,1.3,4.5,3.2,5.5c3.5,1.8,8.6-2.2,11.5,0.6c-0.5-1.1-1.1-2.2-1.6-3.2c1.5-0.9,3.6-0.4,4.5,1c0.2-0.8,0.4-1.6,0.6-2.3
	c4.7,0.2,9.5-0.8,13.7-3c0,1.2,0,2.4,0,3.6c3.2-1.2,6.4-2.4,9.6-3.6c-0.2,1.4-2,1.9-3.3,2.6c-1.3,0.8-1.5,3.3,0,3.1
	c-1,0.4-1.9,0.9-2.9,1.4c4.3,0.9,9-0.3,12.3-3.1c-1.1,1.2-2.2,2.4-3.4,3.6c3.5-0.7,7-2.3,9.7-4.7c-1.5,5.4-8.7,6.3-13.7,8.8
	c-3.8,1.9-6.8,5-9.7,8.1c2.8-0.3,4.8-2.6,7.1-4.4c5-3.9,11.6-4.8,18-5.4c0.9,0.9-0.1,2.5-1.3,3s-2.6,0.5-3.5,1.3
	c-1,0.8-0.6,3,0.6,2.8c1.5-1.6,3.1-3.2,4.6-4.8c0,1.9-0.1,3.8-0.2,5.7c1.3,0.2,2.1,2,1.4,3.1c-3.4-0.4-5.7,3.2-8.3,5.5
	c-2.1,1.9-4.9,3.1-7.8,3.5c5.6,1.2,12.2-4.7,16.6-1c-1.3,2.7-3.7,4.8-6.5,6c-0.5,0.2-1.1,0.4-1.7,0.3c-0.9-0.1-1.6-0.9-2.4-1.3
	c-1.6-0.9-3.8-0.5-4.9,0.9c0.8-0.5,1.9-0.3,2.4,0.5s0,2-0.9,2.3c1.2,0.6,2.3,1.3,3.5,1.9c-4.4,2.7-8.8,5.4-13.8,6.6
	c-5,1.2-10.6,0.6-14.5-2.7c0.9,3.6,5.2,5.1,8.9,5.5c5.6,0.6,11.3,0,16.7-1.7c3.1-2.4,6.1-4.8,9.2-7.2c-1.2,3-2.3,5.9-3.5,8.9
	c0.4-1.1,2.2-1.3,2.9-0.4c-3.4,3-7.6,4.8-12.1,5.2c0.9,0.3,0.3,1.9-0.7,2s-1.9-0.4-2.9-0.4c-3.7-0.2-5.1,6.2-8.8,5.9
	c1.6,0.3,3.2,0.1,4.7-0.4c-1.9,4.9-5.3,10.8-10.5,10.4c-0.6,0-1.4-0.5-1.2-1.1c-0.6,0.3-1.3,0.5-1.9,0.8c1.3,0.9,2.1,2.5,1.8,4.1
	c4.7-1.1,9.3-2.1,14-3.2c0.3,0.9-0.6,1.8-1.5,1.7c0.4,1.1,2.1,0.9,3.2,0.4c2.1-0.8,4.2-1.7,5.7-3.3s2.2-4.2,1-6.1
	c1.9-0.9,4.4,1,4,3.1c-0.4,1.8-2.3,2.8-3.1,4.4c-0.6,1.2-0.5,2.6-1.1,3.9c-0.5,1.3-2.3,2.2-3.2,1.1c0.8,1,1.1,2.4,0.7,3.6
	c2.2-2.5,6.2-0.8,8.9,1.1c-1.3,0.3-2.3,1.3-2.5,2.6c1.2,0,1.3,1.9,0.4,2.6c-0.9,0.8-2.2,0.7-3.3,0.7s-2.5,0.4-3,1.4
	c-0.3,0.7-0.1,1.6,0,2.3c0.4,4.1-4.6,7.6-8.4,6c0.2,1.5,0.4,3,0.6,4.5c2.2-1.3,5.4,0.9,5,3.4c1.1,0.3,2.4-0.2,3.1-1.3
	c-0.6-0.4-1.2-0.9-1.8-1.3c0-1.6,2.5-1.7,3.8-0.8c1.3,0.9,2.3,2.4,3.9,2.5c2.3,0.1,4.6-2.8,6.4-1.3c1.6,1.3-0.2,3.8-2.2,4.4
	s-4.3,0.5-5.5,2.2c-1,1.3-0.5,3.6,1,4.4c-1.8,2.1-4.5,3.5-7.4,3.8c0.9-1.5-0.5-3.5-2.2-4s-3.4,0-5.2,0.2c-2.8,0.4-5.7,0.1-8.3-0.8
	c0.6-1.5,0-3.5-1.4-4.4c-0.9,1.8-1.9,3.6-2.9,5.4c-0.8-2-3.5-2.7-5.5-2c-2,0.8-3.5,2.5-4.8,4.2c-2.2,3-4.1,6.1-5.9,9.3
	c5.8,0.5,11.5,1.3,17.2,2.2c1.3,0.2,2.6,0.5,3.5,1.3c1,0.9,1.6,2.5,2.9,3c1.7,0.5,3.3-1.2,5-1.1c2,0.1,3.3,2.4,5.3,2.5
	c0.8,0,1.5-0.3,2.2-0.6c3.5-1.5,7-3,10.4-4.4c-0.2,1.2-0.3,2.4-0.5,3.6c1.2-1.7,2.3-3.3,3.5-5c-0.3,1.8-0.7,3.6-1,5.4
	c0.5-0.5,1-1.1,1.8-1.2c0.7-0.1,1.5,0.8,1.1,1.3c0.1-1.3,1.2-2.5,2.5-2.6c-1.9,3.4-4.3,6.5-7,9.2c1,1.5-1.4,2.9-3.1,3.3
	c-3.5,0.9-6.8,2.9-9.2,5.7c-0.4,0-0.9-0.1-1.3-0.1c-4.1-0.3-8.2,0.3-12.1,1.8c0-1.3,0-2.5,0-3.7c-2.5,1.7-5.8,2-8.5,0.8
	c-1.7-0.8-3.5-2.1-5.2-1.4c-2,0.9-2.6,4.1-4.7,4.2c-2,0.1-3.1-2.8-5.2-2.9c-2.4,0.8-4.9,1.6-7.3,2.5c-1.3,0.4-2.6,0.9-3.8,0.6
	c-1.3-0.2-2.6-1.3-2.5-2.6c-6,3.5-14.1,2.8-19.6-1.4c1.6-1.9,1.6-4.9,0.1-6.8c1.5-1.5,2.6-3.4,3.1-5.4c-5.2,4.2-11.2,7.3-17.6,9
	c-0.1-3.1-3.1-5.8-6.1-5.7c-0.3-2-1-4-2.3-5.5c1.6-1,3.2-2,4.8-3.1c0.9-0.6,2-1.3,2.4-2.3s-0.1-2.6-1.2-2.7
	c-1.5,2.3-3.6,4.2-6.1,5.4c-5.7-3.6-6-13.1-0.6-17.1c0.9,1.1,3,0.9,3.6-0.4c0.5-3.1,2.3-6.1,4.8-8c1,2.2,3.8,3.5,6.1,2.7
	c-2.6-0.7-4.6-3.2-4.8-5.8c2.1,0.4,4.2,0.5,6.4,0.4c0-1.5-1.8-2.6-3.2-2.1c0.2-0.9,0.4-1.9,0.5-2.8c-6.4-0.7-12.1-5.5-13.9-11.6
	c0.6,0,1.2,0,1.8,0c-0.6-2.8-1.2-5.6-1.8-8.4c3.1-0.8,4.3-5.6,1.9-7.8c3.2-1.5,5.5-4.8,5.8-8.3c-3.6,0.8-7.3,1.5-11,2.3
	c1.4-3.8,4.7-6.9,8.7-8c1.3-0.4,2.9-0.6,3.9-1.7c1.6-1.7,1-4.4,1.9-6.6c1.1-2.8,4.9-5.1,3.8-7.9c-0.2-0.6-0.7-1.2-0.9-1.8
	c-0.5-2.1,2.2-3.5,4.3-4c0.9,1.6,3.1,2.2,4.9,2c1.8-0.1,3.7-0.8,5.6-0.7c1.4,0,2.9,0.4,4.3,0s2.6-2.1,1.8-3.2
	c1.9-0.5,3.8-1.1,5.7-1.7c0.5-0.1,1.1-0.4,1.3-0.9c0.3-0.6,0-1.2-0.3-1.8c-0.7-1.8-0.2-4,1.1-5.3c-0.9-1.6-3.4-1.6-5-0.8
	c-1.7,0.8-3.1,2.2-5,2.6c-1.8,0.4-4.2-0.8-4-2.6c0.4-3.1,6.3-2.1,7.2-5c-3-3.1-5.9-6.1-8.9-9.1c0.3-0.9,0.6-1.8,0.9-2.6
	c-1.3-0.5-2.6-1.1-3.9-1.6c1-0.8,1.8-1.9,2.3-3.2c-2.8-1.2-5.9,0.7-8.2,2.7c-2.3,2-4.7,4.4-7.8,4.3c-1.4,0-2.7-0.6-4.1-0.4
	c-1.3,0.1-2.5,1-3.8,1.3c-3.5,0.9-7.2-2.8-6.3-6.3c0.3-1.3,1.1-2.3,1.9-3.4c2.6-3.4,8.5-6.2,12-8.7l-1.4-0.5c-0.9,0-2-0.1-2.4-0.9
	c-0.9-2,3.6-3.3,2.8-5.3c-0.4-1-2.2-2-1.3-2.7c3.6,0.1,7.1,0.1,10.7,0.2c1.8,0,4.4-0.7,4.1-2.5c1.7,0.3,3.5-0.6,4.5-2
	c1.3-1.9,0.1-5.3-2.2-5.2c-1.3,0-2.4,1.1-3.7,1.5c-1.3,0.4-3.2-0.6-2.6-1.8c0.5-1.1,2.2-0.7,3.2-1.3c1.3-0.7,1.3-2.7,0.4-4
	c-0.9-1.2-2.3-1.9-3.5-2.7c-1.3-0.9-2.5-2.1-4-2.7c-4.1-1.8-8.6,0.9-12.9,1.4c-2.4,0.3-5.5-0.5-6.1-2.9c-0.7-2.3,1.3-4.5,3.3-6
	c0.4-0.4,1-0.8,1.6-0.7c0.6,0,1.1,0.5,1.6,0.9c1.2,0.9,2.9,1.4,4.4,1.1c-0.5-0.7-1.1-1.3-1.7-2c2.6-0.4,4.4-2.9,6.9-3.4
	c1.1-0.2,2.2,0,3.3,0.1c3.4,0.3,6.8-0.4,9.8-1.9c-0.9-0.4-1.8-0.9-2.5-1.5c-1.9,0.6-3.8,1.3-5.7,1.9c-1.5,0.7-3.3,0.4-4.5-0.6
	c-2-0.5-3.6,2.2-5.7,2.2c-2.2,0-3.2-3-5.1-4.1c-0.6-2.3-1.4-4.5-2.4-6.6c-1.2,0.3-2.4,0.9-3.3,1.8c-1.3-2.3-1.7-5-1.2-7.6
	c0.4-1.7,1.2-3.3,2-4.9c0.4-0.8,0.9-1.7,1.7-2c1.1-0.4,2.2,0.4,3.3,0.9s2.7,0.5,3.1-0.6c-0.2,0.7-1.4,0.1-1.3-0.6
	c0.1-0.7,0.8-1.1,1.5-1.3c-0.6-0.5-1.1-1.3-1.4-2c0.9,0.3,1.9,0.3,2.8,0.2c-0.3-1.1-1.4-1.9-2.5-1.9c1-1.2,2-2.3,3-3.5
	c0.7-1.6-0.1-3.7-1.7-4.4c-0.9-0.4-2.2-0.9-1.8-1.8c1.2,0.1,2.5-0.6,3-1.8c2.2,1.1,4,2.7,5.4,4.7c0.3,0.4,0.6,0.9,1,1.1
	c0.3,0.1,0.6,0.2,0.9,0.2c3.1,0.1,5-4.3,3.1-6.8c0.5,1.4,1.5,2.6,2.7,3.4c1.8,0,3.5-0.2,5.2-0.5c1.1-0.3,2.5-0.8,2.6-2
	c0.1-0.6-0.2-1.2-0.2-1.8c0-1,0.6-1.9,0.8-2.8c0.2-0.9-0.1-2.3-1-2.4c1.7-1.8,3.8-3.2,6.1-4c0-0.5,0-1.1,0-1.7c1.1,0,2-1,1.9-2.1
	c-3.4,1.8-7.8,1.2-10.7-1.3c1.1-1.7,3.3-2.5,5.3-2c-0.8-2.2-3.8-2.6-5.8-1.5c-2,1-3.3,3-4.8,4.7c-1.3,1.3-2.6,2.5-4.2,3.5
	c-2.7-1.3-5.3-3-7.6-4.9c-0.7,0.3-1.5,0.2-2.1-0.3c0-0.5,0-1.1-0.1-1.6c-1.2,0.3-2.4,0.5-3.6,0.2c-1.2-0.3-2.1-1.3-2.2-2.5
	c-0.6,0-1.8,0-2.3-0.4c-0.6-0.6-0.2-0.6-0.2-1.6c0-0.9,0-1.9,0-2.8c0.1-2.6,1.2-6.2,2.8-8.3c2.1-2.7,5.7-3.8,9.1-4.1
	c6.2-0.5,12.6,0.9,18.8,0.4c5.5-0.4,11-2.3,16.5-1.4c-1.5,1.1-2.7,2.5-3.7,4c-0.2,0.4-0.4,0.8-0.4,1.2c0,0.9,1,1.4,1.8,1.9
	s1.6,1.5,0.9,2.2c2.3-0.8,5.1-0.2,6.9,1.5s3.4,4.5,5.7,3.8c0.5-0.7,1-1.5,1.5-2.2c-0.6,0.4,0,1.6,0.7,1.5c0.8,0,1.3-0.9,1.2-1.6
	s-0.4-1.4-0.8-2.1c0.7,0,1.4,0,2.2,0c0.3,1.7,0.5,3.3,0.9,5c0.1,0.5,0.1,1-0.1,1.5c-0.3,0.4-1.1,0.4-1.2-0.1c0.6,1-0.2,2.2-1.2,2.9
	c-0.9,0.7-2.2,1.2-2.6,2.2c-0.7,1.7,0.8,3.3,1.9,4.8c1.4,2,2.2,4.5,2,6.9c2.7-1.4,5.6,3.1,8.4,2.2c0.7-0.2,1.3-0.8,2-1.1
	c1.9-0.8,4.1,0.8,4.7,2.8c0.6,1.9,0.1,4-0.4,6.1s-1,4.1-1.5,6.1c0-2.1-1.5-4.1-3.5-4.8c0.8,2.8-0.9,6-3.6,7c0.4,0.7,0,1.8-0.9,1.9
	c-0.8-1.3-2.2-2.2-3.6-2.6c0.4,1.1,0.7,2.2,1,3.4c-0.7-0.2-1.4-0.4-2.1-0.6c1.2,0.8,2.3,1.9,3.1,3.1c0.3,0.4,0.5,0.9,0.4,1.3
	s-0.8,0.7-1.1,0.3c1.4,2.2,2.9,4.4,4.3,6.6c-0.6-0.3-1.2,0.5-1,1.2c0.2,0.6,0.9,1,1.4,1.3c1.7,0.9,3.3,1.8,4.9,2.6
	c-3.9,0.7-8,0-11.5-1.8c-2.4,1.7-1,5.6-2.1,8.3c-1.3,3.2-5.6,3.8-9,3.9c-0.5,0-1.1,0-1.5-0.3s-0.5-0.7-0.7-1.1
	c-1.1-2.6-2.2-5.2-3.3-7.7c-0.2,2.6-0.4,5.2-0.6,7.9c0,0.5-0.1,1.1-0.4,1.4c-0.6,0.7-2,0.7-2.2,1.6c-0.1,0.5,0.3,1,0.1,1.5
	c-0.2,0.4-0.7,0.6-1.1,0.9c-1,0.7-1.3,2.3-0.4,3.2c-0.9-0.2-1.7,0.7-1.8,1.6c-0.1,0.9,0.2,1.8,0.5,2.6c2.6-1.1,5.9-0.8,8.3,0.9
	c0.2-0.8,0.2-1.6,0-2.3c0.9,0.1,1.8,0.3,2.8,0.4c-0.3-0.6,0.5-1.1,1.2-1.3c3.1-0.7,6.3-1.4,9.5-2.1c-0.5,0.1-0.5,0.9-0.1,1.2
	c0.4,0.3,0.9,0.2,1.4,0.1c2.8-0.6,5.6-1.6,8-3.1c-1.4,2.1-3.5,3.8-5.9,4.6c2.1-0.2,4.1-0.9,5.7-2.2c-1.2,1.8-2.7,3.4-4.4,4.8
	c2.6-1.2,5-2.6,7.4-4.2c-0.9,2-2.4,3.7-4.3,4.7c2.3-1.6,4.7-3,7.1-4.4c-1.9,0.9-3,3-4.7,4.4c-3.2,2.6-8.6,2.7-10.3,6.6
	c1.6-2.1,4.3-2.9,6.9-3.6c3.1-0.9,6.2-1.7,9.3-2.6c-0.4,2.1-2.1,3.9-4.2,4.3c1,0.9,2.6,1.3,3.9,0.8c0.8,0.8,1.1,2.2,0.5,3.2
	c-3.5,1.6-6.9,3.6-10,5.9c3.9,0,7.7-0.4,11.4-1.3c-0.9,3.1-4.7,5.1-7.8,4c-0.9-0.4-2.1-0.8-2.6,0c0.8,1.4,1.7,2.8,2.5,4.2
	c-1.4,0.3-2.9,0.7-3.7,1.9s-0.2,3.3,1.2,3.2L114.5,156z"/>
<path class="st0" d="M114.5,156c-0.2,1.3-2.1,2-2.8,1c0.2,2.5-0.8,5-2.6,6.8c0.7,1,1,2.2,0.9,3.4c-1.2-0.4-2.6-0.1-3.6,0.8
	c0.5,2.1,1.3,4.5,3.2,5.5c3.5,1.8,8.6-2.2,11.5,0.6c-0.5-1.1-1.1-2.2-1.6-3.2c1.5-0.9,3.6-0.4,4.5,1c0.2-0.8,0.4-1.6,0.6-2.3
	c4.7,0.2,9.5-0.8,13.7-3c0,1.2,0,2.4,0,3.6c3.2-1.2,6.4-2.4,9.6-3.6c-0.2,1.4-2,1.9-3.3,2.6c-1.3,0.8-1.5,3.3,0,3.1
	c-1,0.4-1.9,0.9-2.9,1.4c4.3,0.9,9-0.3,12.3-3.1c-1.1,1.2-2.2,2.4-3.4,3.6c3.5-0.7,7-2.3,9.7-4.7c-1.5,5.4-8.7,6.3-13.7,8.8
	c-3.8,1.9-6.8,5-9.7,8.1c2.8-0.3,4.8-2.6,7.1-4.4c5-3.9,11.6-4.8,18-5.4c0.9,0.9-0.1,2.5-1.3,3s-2.6,0.5-3.5,1.3
	c-1,0.8-0.6,3,0.6,2.8c1.5-1.6,3.1-3.2,4.6-4.8c0,1.9-0.1,3.8-0.2,5.7c1.3,0.2,2.1,2,1.4,3.1c-3.4-0.4-5.7,3.2-8.3,5.5
	c-2.1,1.9-4.9,3.1-7.8,3.5c5.6,1.2,12.2-4.7,16.6-1c-1.3,2.7-3.7,4.8-6.5,6c-0.5,0.2-1.1,0.4-1.7,0.3c-0.9-0.1-1.6-0.9-2.4-1.3
	c-1.6-0.9-3.8-0.5-4.9,0.9c0.8-0.5,1.9-0.3,2.4,0.5s0,2-0.9,2.3c1.2,0.6,2.3,1.3,3.5,1.9c-4.4,2.7-8.8,5.4-13.8,6.6
	c-5,1.2-10.6,0.6-14.5-2.7c0.9,3.6,5.2,5.1,8.9,5.5c5.6,0.6,11.3,0,16.7-1.7c3.1-2.4,6.1-4.8,9.2-7.2c-1.2,3-2.3,5.9-3.5,8.9
	c0.4-1.1,2.2-1.3,2.9-0.4c-3.4,3-7.6,4.8-12.1,5.2c0.9,0.3,0.3,1.9-0.7,2s-1.9-0.4-2.9-0.4c-3.7-0.2-5.1,6.2-8.8,5.9
	c1.6,0.3,3.2,0.1,4.7-0.4c-1.9,4.9-5.3,10.8-10.5,10.4c-0.6,0-1.4-0.5-1.2-1.1c-0.6,0.3-1.3,0.5-1.9,0.8c1.3,0.9,2.1,2.5,1.8,4.1
	c4.7-1.1,9.3-2.1,14-3.2c0.3,0.9-0.6,1.8-1.5,1.7c0.4,1.1,2.1,0.9,3.2,0.4c2.1-0.8,4.2-1.7,5.7-3.3s2.2-4.2,1-6.1
	c1.9-0.9,4.4,1,4,3.1c-0.4,1.8-2.3,2.8-3.1,4.4c-0.6,1.2-0.5,2.6-1.1,3.9c-0.5,1.3-2.3,2.2-3.2,1.1c0.8,1,1.1,2.4,0.7,3.6
	c2.2-2.5,6.2-0.8,8.9,1.1c-1.3,0.3-2.3,1.3-2.5,2.6c1.2,0,1.3,1.9,0.4,2.6c-0.9,0.8-2.2,0.7-3.3,0.7s-2.5,0.4-3,1.4
	c-0.3,0.7-0.1,1.6,0,2.3c0.4,4.1-4.6,7.6-8.4,6c0.2,1.5,0.4,3,0.6,4.5c2.2-1.3,5.4,0.9,5,3.4c1.1,0.3,2.4-0.2,3.1-1.3
	c-0.6-0.4-1.2-0.9-1.8-1.3c0-1.6,2.5-1.7,3.8-0.8c1.3,0.9,2.3,2.4,3.9,2.5c2.3,0.1,4.6-2.8,6.4-1.3c1.6,1.3-0.2,3.8-2.2,4.4
	s-4.3,0.5-5.5,2.2c-1,1.3-0.5,3.6,1,4.4c-1.8,2.1-4.5,3.5-7.4,3.8c0.9-1.5-0.5-3.5-2.2-4s-3.4,0-5.2,0.2c-2.8,0.4-5.7,0.1-8.3-0.8
	c0.6-1.5,0-3.5-1.4-4.4c-0.9,1.8-1.9,3.6-2.9,5.4c-0.8-2-3.5-2.7-5.5-2c-2,0.8-3.5,2.5-4.8,4.2c-2.2,3-4.1,6.1-5.9,9.3
	c5.8,0.5,11.5,1.3,17.2,2.2c1.3,0.2,2.6,0.5,3.5,1.3c1,0.9,1.6,2.5,2.9,3c1.7,0.5,3.3-1.2,5-1.1c2,0.1,3.3,2.4,5.3,2.5
	c0.8,0,1.5-0.3,2.2-0.6c3.5-1.5,7-3,10.4-4.4c-0.2,1.2-0.3,2.4-0.5,3.6c1.2-1.7,2.3-3.3,3.5-5c-0.3,1.8-0.7,3.6-1,5.4
	c0.5-0.5,1-1.1,1.8-1.2c0.7-0.1,1.5,0.8,1.1,1.3c0.1-1.3,1.2-2.5,2.5-2.6c-1.9,3.4-4.3,6.5-7,9.2c1,1.5-1.4,2.9-3.1,3.3
	c-3.5,0.9-6.8,2.9-9.2,5.7c-0.4,0-0.9-0.1-1.3-0.1c-4.1-0.3-8.2,0.3-12.1,1.8c0-1.3,0-2.5,0-3.7c-2.5,1.7-5.8,2-8.5,0.8
	c-1.7-0.8-3.5-2.1-5.2-1.4c-2,0.9-2.6,4.1-4.7,4.2c-2,0.1-3.1-2.8-5.2-2.9c-2.4,0.8-4.9,1.6-7.3,2.5c-1.3,0.4-2.6,0.9-3.8,0.6
	c-1.3-0.2-2.6-1.3-2.5-2.6c-6,3.5-14.1,2.8-19.6-1.4c1.6-1.9,1.6-4.9,0.1-6.8c1.5-1.5,2.6-3.4,3.1-5.4c-5.2,4.2-11.2,7.3-17.6,9
	c-0.1-3.1-3.1-5.8-6.1-5.7c-0.3-2-1-4-2.3-5.5c1.6-1,3.2-2,4.8-3.1c0.9-0.6,2-1.3,2.4-2.3s-0.1-2.6-1.2-2.7
	c-1.5,2.3-3.6,4.2-6.1,5.4c-5.7-3.6-6-13.1-0.6-17.1c0.9,1.1,3,0.9,3.6-0.4c0.5-3.1,2.3-6.1,4.8-8c1,2.2,3.8,3.5,6.1,2.7
	c-2.6-0.7-4.6-3.2-4.8-5.8c2.1,0.4,4.2,0.5,6.4,0.4c0-1.5-1.8-2.6-3.2-2.1c0.2-0.9,0.4-1.9,0.5-2.8c-6.4-0.7-12.1-5.5-13.9-11.6
	c0.6,0,1.2,0,1.8,0c-0.6-2.8-1.2-5.6-1.8-8.4c3.1-0.8,4.3-5.6,1.9-7.8c3.2-1.5,5.5-4.8,5.8-8.3c-3.6,0.8-7.3,1.5-11,2.3
	c1.4-3.8,4.7-6.9,8.7-8c1.3-0.4,2.9-0.6,3.9-1.7c1.6-1.7,1-4.4,1.9-6.6c1.1-2.8,4.9-5.1,3.8-7.9c-0.2-0.6-0.7-1.2-0.9-1.8
	c-0.5-2.1,2.2-3.5,4.3-4c0.9,1.6,3.1,2.2,4.9,2c1.8-0.1,3.7-0.8,5.6-0.7c1.4,0,2.9,0.4,4.3,0s2.6-2.1,1.8-3.2
	c1.9-0.5,3.8-1.1,5.7-1.7c0.5-0.1,1.1-0.4,1.3-0.9c0.3-0.6,0-1.2-0.3-1.8c-0.7-1.8-0.2-4,1.1-5.3c-0.9-1.6-3.4-1.6-5-0.8
	c-1.7,0.8-3.1,2.2-5,2.6c-1.8,0.4-4.2-0.8-4-2.6c0.4-3.1,6.3-2.1,7.2-5c-3-3.1-5.9-6.1-8.9-9.1c0.3-0.9,0.6-1.8,0.9-2.6
	c-1.3-0.5-2.6-1.1-3.9-1.6c1-0.8,1.8-1.9,2.3-3.2c-2.8-1.2-5.9,0.7-8.2,2.7c-2.3,2-4.7,4.4-7.8,4.3c-1.4,0-2.7-0.6-4.1-0.4
	c-1.3,0.1-2.5,1-3.8,1.3c-3.5,0.9-7.2-2.8-6.3-6.3c0.3-1.3,1.1-2.3,1.9-3.4"/>
<path class="st1" d="M59.7,154.5c-0.9,0-2.1-0.1-2.5-1c-0.9-2,3.7-3.4,2.9-5.4c-0.4-1.1-2.2-2-1.3-2.8c3.6,0.1,7.2,0.1,10.8,0.2
	c1.9,0,4.4-0.7,4.2-2.5c1.8,0.3,3.6-0.6,4.5-2.1c1.3-2,0.1-5.3-2.2-5.3c-1.3,0-2.5,1.1-3.7,1.5c-1.3,0.4-3.2-0.6-2.6-1.8
	c0.5-1.1,2.2-0.7,3.3-1.3c1.3-0.7,1.3-2.7,0.4-4c-0.9-1.2-2.3-1.9-3.6-2.7c-1.3-0.9-2.6-2.1-4-2.7c-4.1-1.8-8.7,0.9-13.1,1.5
	c-2.5,0.3-5.5-0.5-6.2-2.9s1.4-4.5,3.3-6.1c0.5-0.4,1-0.8,1.6-0.7c0.6,0,1.1,0.5,1.6,0.9c1.3,1,2.9,1.4,4.4,1.2
	c-0.6-0.7-1.1-1.3-1.7-2c2.6-0.4,4.4-3,7-3.5c1.1-0.2,2.2,0,3.4,0.1c3.4,0.3,6.9-0.4,9.9-2c-0.9-0.4-1.8-0.9-2.5-1.5
	c-1.9,0.7-3.8,1.3-5.7,2c-1.5,0.7-3.3,0.4-4.6-0.6c-2.1-0.5-3.7,2.2-5.8,2.2c-2.3,0-3.2-3-5.2-4.1c-0.6-2.3-1.4-4.5-2.5-6.7
	c-1.2,0.3-2.4,0.9-3.4,1.8c-1.3-2.3-1.8-5.1-1.2-7.7c0.4-1.8,1.2-3.4,2-4.9c0.4-0.8,0.9-1.7,1.8-2c1.1-0.4,2.2,0.4,3.3,0.9
	s2.7,0.5,3.1-0.6c-0.2,0.7-1.4,0.1-1.3-0.6c0.1-0.7,0.9-1.1,1.5-1.4c-0.6-0.5-1.1-1.3-1.5-2c0.9,0.3,1.9,0.3,2.9,0.2
	c-0.3-1.1-1.4-1.9-2.5-1.9c1-1.2,2-2.4,3-3.5c0.7-1.6-0.1-3.7-1.7-4.4c-0.9-0.4-2.3-1-1.9-1.9c1.2,0.1,2.5-0.6,3-1.8
	c2.2,1.1,4,2.7,5.4,4.7c0.3,0.4,0.6,0.9,1,1.1c0.3,0.2,0.6,0.2,0.9,0.2c3.1,0.1,5-4.4,3.1-6.8c0.5,1.4,1.5,2.6,2.7,3.4
	c1.8,0,3.5-0.2,5.3-0.5c1.2-0.3,2.5-0.8,2.6-2c0.1-0.6-0.2-1.2-0.2-1.8c0-1,0.6-1.9,0.9-2.9c0.3-0.9-0.1-2.3-1.1-2.4
	c1.7-1.8,3.9-3.2,6.2-4c0-0.5,0-1.1,0-1.7c1.1,0,2-1.1,1.9-2.1c-3.4,1.8-7.9,1.2-10.8-1.3c1.1-1.7,3.4-2.6,5.3-2
	c-0.8-2.2-3.8-2.6-5.9-1.5c-1.9,1-3.2,3-4.7,4.7c-1.3,1.3-2.7,2.6-4.3,3.5c-2.7-1.3-5.3-3-7.6-5c-0.7,0.3-1.5,0.2-2.1-0.3
	c0-0.5,0-1.1-0.1-1.7c-1.2,0.3-2.4,0.5-3.6,0.2c-1.2-0.3-2.1-1.3-2.2-2.5c-0.6,0-1.8,0-2.3-0.5c-0.7-0.6-0.2-0.6-0.2-1.6
	c0-0.9,0-1.9,0-2.8c0.1-2.7,1.2-6.2,2.8-8.4c2.1-2.8,5.7-3.8,9.2-4.1c6.3-0.5,12.7,0.9,19,0.4c5.6-0.4,11.1-2.3,16.7-1.4
	C93.3,34.6,92,36,91,37.6c-0.2,0.4-0.4,0.8-0.4,1.2c0,0.9,1,1.4,1.8,1.9c0.8,0.4,1.6,1.5,0.9,2.2c2.4-0.8,5.2-0.2,7,1.5
	s3.4,4.5,5.7,3.9c0.5-0.7,1-1.5,1.5-2.2c-0.6,0.4,0,1.6,0.7,1.5c0.8,0,1.3-0.9,1.3-1.6c0-0.8-0.4-1.4-0.9-2.1c0.7,0,1.4,0,2.2,0
	c0.3,1.7,0.5,3.4,0.9,5.1c0.1,0.5,0.1,1.1-0.1,1.5s-1.1,0.4-1.2-0.1c0.6,1-0.2,2.3-1.2,3s-2.2,1.2-2.6,2.3c-0.7,1.7,0.9,3.4,1.9,4.8
	c1.4,2,2.2,4.5,2,7c2.7-1.4,5.6,3.2,8.5,2.2c0.7-0.2,1.3-0.8,2-1.1c1.9-0.8,4.1,0.9,4.8,2.8s0.1,4.1-0.4,6.1c-0.5,2.1-1,4.1-1.5,6.2
	c0-2.2-1.5-4.2-3.5-4.8c0.8,2.8-0.9,6.1-3.7,7c0.4,0.7,0,1.8-0.9,1.9c-0.9-1.3-2.2-2.2-3.6-2.6c0.4,1.1,0.7,2.2,1.1,3.4
	c-0.7-0.2-1.4-0.4-2.1-0.6c1.2,0.8,2.3,1.9,3.1,3.1c0.3,0.4,0.5,0.9,0.4,1.3s-0.8,0.7-1.1,0.3c1.4,2.2,2.9,4.4,4.4,6.7
	c-0.6-0.3-1.2,0.6-1,1.2s0.9,1,1.4,1.3c1.7,0.9,3.3,1.8,5,2.6c-4,0.7-8.1,0-11.6-1.8c-2.4,1.8-1,5.7-2.2,8.4
	c-1.3,3.2-5.6,3.8-9.1,3.9c-0.5,0-1.1,0-1.6-0.3c-0.4-0.3-0.5-0.7-0.7-1.1c-1.1-2.6-2.2-5.2-3.3-7.8c-0.2,2.6-0.4,5.3-0.6,7.9
	c0,0.5-0.1,1.1-0.4,1.5c-0.6,0.7-2,0.7-2.2,1.6c-0.1,0.5,0.3,1,0.1,1.5s-0.7,0.6-1.1,0.9c-1,0.7-1.3,2.3-0.4,3.2
	c-0.9-0.2-1.7,0.7-1.8,1.6c-0.1,0.9,0.2,1.8,0.5,2.6c2.7-1.2,6-0.8,8.3,0.9c0.2-0.8,0.2-1.6,0-2.3c0.9,0.1,1.9,0.3,2.8,0.4
	c-0.3-0.6,0.5-1.1,1.2-1.3c3.2-0.7,6.4-1.4,9.6-2.1c-0.5,0.1-0.5,0.9-0.1,1.2c0.4,0.3,0.9,0.2,1.4,0.1c2.9-0.6,5.6-1.6,8.1-3.1
	c-1.4,2.2-3.5,3.8-6,4.7c2.1-0.2,4.1-0.9,5.8-2.2c-1.2,1.8-2.7,3.5-4.5,4.8c2.6-1.2,5.1-2.6,7.4-4.2c-0.9,2-2.4,3.7-4.3,4.8
	c2.3-1.6,4.7-3.1,7.1-4.4c-1.9,0.9-3.1,3.1-4.8,4.4c-3.2,2.6-8.7,2.8-10.4,6.6c1.6-2.1,4.4-3,6.9-3.7c3.1-0.9,6.3-1.8,9.4-2.6
	c-0.4,2.1-2.1,4-4.2,4.4c1.1,0.9,2.6,1.3,4,0.8c0.9,0.8,1.1,2.2,0.5,3.2c-3.5,1.6-7,3.6-10.1,6c3.9,0,7.8-0.4,11.5-1.3
	c-0.9,3.2-4.8,5.2-7.9,4c-0.9-0.4-2.1-0.8-2.6,0c0.9,1.4,1.7,2.8,2.5,4.3c-1.4,0.3-2.9,0.7-3.8,1.9L59.7,154.5z"/>
<path class="st2" d="M61.4,154.6c-3.5,2.5-9.4,5.3-12,8.7c-0.8,1-1.1,2.6-1.4,3.9c-0.9,3.5,2.9,7.2,6.3,6.3c1.3-0.3,2.5-1.2,3.8-1.3
	c1.3-0.2,2.7,0.4,4.1,0.4c3.1,0.1,5.5-2.3,7.8-4.3c2.2-2,5.4-4,8.2-2.7c-0.4,1.3-1.3,2.4-2.3,3.2c1.3,0.5,2.6,1.1,3.9,1.6
	c-0.3,0.9-0.6,1.8-0.9,2.6c3,3.1,5.9,6.1,8.8,9.1c-0.9,3-6.8,2-7.2,5c-0.2,1.8,2.2,3.1,4,2.6c1.8-0.4,3.3-1.8,5-2.6s4.1-0.8,5,0.8
	c-1.3,1.3-1.8,3.5-1.1,5.3c0.2,0.6,0.5,1.2,0.3,1.8c-0.2,0.5-0.8,0.7-1.3,0.8c-1.9,0.5-3.8,1.1-5.7,1.7c0.8,1.2-0.4,2.9-1.8,3.2
	c-1.4,0.4-2.8,0-4.3,0c-1.8,0-3.7,0.6-5.5,0.7c-1.8,0.1-4-0.4-4.9-2c-2.1,0.5-4.8,1.9-4.3,4c0.2,0.6,0.6,1.2,0.9,1.8
	c1.1,2.9-2.6,5.1-3.8,7.9c-0.9,2.2-0.3,4.9-1.9,6.6c-1,1-2.5,1.3-3.9,1.7c-3.9,1.2-7.2,4.2-8.6,8c3.6-0.8,7.3-1.5,10.9-2.3
	c-0.4,3.5-2.6,6.8-5.8,8.3c2.4,2.2,1.2,6.9-1.9,7.7c0.6,2.8,1.2,5.6,1.8,8.4c-0.6,0-1.2,0-1.8,0c1.8,6.1,7.5,10.9,13.8,11.6
	c-0.2,0.9-0.4,1.9-0.5,2.8c1.4-0.6,3.2,0.5,3.2,2c-2.1,0.2-4.3,0-6.3-0.4c0.2,2.6,2.2,5.1,4.8,5.8c-2.3,0.8-5.1-0.5-6.1-2.7
	c-2.6,1.9-4.4,4.8-4.8,7.9c-0.6,1.3-2.7,1.5-3.6,0.4c-5.4,4-5,13.5,0.6,17c2.5-1.2,4.6-3.1,6.1-5.3c1.1,0.1,1.6,1.6,1.2,2.7
	c-0.4,1-1.4,1.7-2.4,2.3c-1.6,1-3.2,2-4.8,3c1.2,1.6,2,3.5,2.3,5.5c3.1-0.1,6,2.6,6.1,5.7c6.4-1.7,12.5-4.8,17.6-9
	c-0.5,2.1-1.6,4-3.1,5.4c1.5,1.9,1.4,4.9-0.1,6.8c5.5,4.2,13.6,4.8,19.5,1.4c0,1.3,1.2,2.4,2.5,2.6s2.6-0.2,3.8-0.6
	c2.4-0.8,4.8-1.6,7.3-2.4c2,0,3.1,2.9,5.1,2.9c2.2-0.1,2.7-3.3,4.7-4.1c1.7-0.7,3.5,0.6,5.2,1.4c2.7,1.2,6.1,0.9,8.5-0.8
	c0,1.2,0,2.5,0,3.7c3.8-1.4,7.9-2,12-1.8c0.4,0,0.9,0.1,1.3,0.1c2.4-2.8,5.7-4.8,9.2-5.7c1.8-0.4,4.2-1.8,3.1-3.3
	c2.7-2.7,5.1-5.7,7-9.1c-1.3,0.1-2.4,1.3-2.5,2.6c0.4-0.6-0.4-1.4-1.1-1.3c-0.7,0.1-1.3,0.7-1.8,1.2c0.3-1.8,0.7-3.6,1-5.4
	c-1.2,1.7-2.3,3.3-3.5,5c0.2-1.2,0.3-2.4,0.5-3.6c-3.5,1.5-6.9,2.9-10.4,4.4c-0.7,0.3-1.4,0.6-2.2,0.6c-2-0.1-3.3-2.4-5.3-2.5
	c-1.8-0.1-3.3,1.6-5,1.1c-1.3-0.4-1.9-2-2.9-2.9c-0.9-0.9-2.3-1.1-3.5-1.3c-5.7-1-11.4-1.8-17.2-2.2c1.7-3.2,3.7-6.3,5.8-9.3
	c1.3-1.8,2.7-3.5,4.8-4.2c2-0.8,4.7,0,5.5,2c0.9-1.8,1.9-3.5,2.9-5.3c1.4,0.9,2,2.8,1.4,4.4c2.6,0.9,5.5,1.1,8.3,0.8
	c1.7-0.2,3.5-0.7,5.1-0.2s3.1,2.4,2.2,4c2.8-0.3,5.5-1.6,7.3-3.7c-1.5-0.8-2-3-1-4.3c1.2-1.6,3.5-1.6,5.5-2.2
	c1.9-0.5,3.7-3.1,2.2-4.4c-1.8-1.4-4.1,1.5-6.4,1.3c-1.6-0.1-2.6-1.6-3.9-2.5c-1.3-0.9-3.7-0.8-3.7,0.8c0.6,0.4,1.2,0.9,1.8,1.3
	c-0.6,1-1.9,1.5-3.1,1.2c0.4-2.5-2.8-4.7-5-3.4c-0.2-1.5-0.4-3-0.6-4.5c3.8,1.7,8.7-1.8,8.3-6c0-0.8-0.3-1.6,0-2.3
	c0.4-1.1,1.8-1.4,3-1.4s2.4,0,3.3-0.7c0.9-0.7,0.7-2.6-0.4-2.6c0.2-1.3,1.3-2.3,2.5-2.6c-2.7-1.9-6.8-3.6-8.9-1.1
	c0.4-1.2,0.1-2.6-0.7-3.6c0.9,1,2.6,0.1,3.2-1.1c0.5-1.2,0.5-2.7,1.1-3.9c0.8-1.6,2.7-2.6,3.1-4.4c0.4-2.1-2.1-4-4-3.1
	c1.2,1.9,0.4,4.4-1,6.1c-1.5,1.6-3.6,2.5-5.7,3.3c-1.1,0.4-2.8,0.7-3.2-0.4c0.9,0.2,1.8-0.8,1.4-1.7c-4.6,1-9.2,2.1-13.9,3.1
	c0.3-1.5-0.4-3.2-1.8-4.1c0.6-0.3,1.3-0.5,1.9-0.8c-0.3,0.6,0.5,1,1.2,1.1c5.3,0.4,8.6-5.4,10.5-10.4c-1.5,0.6-3.1,0.7-4.7,0.4
	c3.7,0.3,5.1-6.1,8.8-5.9c1,0,1.9,0.6,2.9,0.4c0.9-0.1,1.6-1.7,0.7-2c4.4-0.4,8.7-2.3,12-5.2c-0.7-0.9-2.5-0.7-2.9,0.4
	c1.2-3,2.3-5.9,3.5-8.8c-3.1,2.4-6.1,4.8-9.2,7.2c-5.3,1.8-11,2.3-16.6,1.7c-3.7-0.4-7.9-1.9-8.9-5.5c3.9,3.3,9.5,3.9,14.5,2.6
	c4.9-1.2,9.4-3.9,13.7-6.6c-1.2-0.6-2.3-1.3-3.5-1.9c0.9-0.3,1.3-1.5,0.9-2.3c-0.4-0.8-1.7-1.1-2.4-0.5c1.2-1.3,3.4-1.8,4.9-0.9
	c0.8,0.4,1.5,1.2,2.4,1.3c0.6,0.1,1.2-0.1,1.7-0.3c2.8-1.1,5.2-3.3,6.5-6c-4.4-3.7-11,2.2-16.6,0.9c2.8-0.3,5.6-1.5,7.7-3.4
	c2.5-2.3,4.8-5.8,8.2-5.5c0.8-1.1,0-2.9-1.3-3.1c0-1.9,0.1-3.8,0.2-5.7c-1.5,1.6-3.1,3.2-4.5,4.8c-1.3,0.2-1.6-1.9-0.6-2.7
	s2.4-0.9,3.5-1.3c1.2-0.5,2.2-2.1,1.3-3c-6.3,0.7-12.9,1.6-17.9,5.4c-2.2,1.7-4.3,4.1-7,4.4c2.9-3.1,5.9-6.2,9.7-8.1
	c5.1-2.5,12.2-3.4,13.7-8.8c-2.7,2.4-6.1,4-9.6,4.7c1.1-1.2,2.2-2.4,3.3-3.6c-3.3,2.8-8,4-12.3,3.1c0.9-0.4,1.9-0.9,2.9-1.4
	c-1.4,0.2-1.2-2.4,0-3.1c1.3-0.7,3.1-1.2,3.3-2.6c-3.2,1.2-6.4,2.4-9.5,3.5c0-1.2,0-2.4,0-3.6c-4.2,2.2-8.9,3.2-13.6,3
	c-0.2,0.8-0.4,1.6-0.6,2.3c-0.9-1.4-3.1-1.9-4.5-1c0.5,1.1,1.1,2.2,1.6,3.2c-2.9-2.7-7.9,1.2-11.5-0.6c-1.9-1-2.7-3.4-3.2-5.5
	c0.9-0.9,2.4-1.2,3.6-0.8c0.1-1.2-0.3-2.4-0.9-3.4c1.8-1.7,2.7-4.3,2.6-6.7c0.8,1,2.6,0.3,2.8-1c0.2-1.2,4.3-1.8,3.1-2.3
	c-1.2-0.5-0.9-2.4-1.2-3.2c-0.3-0.6-11.4,0.4-23.5,1.2C87.8,152.7,66.7,154.2,61.4,154.6L61.4,154.6z"/>
<g class="st3">
	<text transform="matrix(1 0 0 1 14.4474 28.3248)" class="st4 st5 st6">The North</text>
</g>
<text transform="matrix(1 0 0 1 73.5929 341.3727)" class="st7 st5 st6">The South</text>
<path class="st8" d="M95.8,85.6c0.3,0.6,2.2,2.2,2.9,2c-0.3-1.3-0.9-2.2-1-3.5c0,0.8,1.9,1.2,2.6,1.7c-0.3-1-1-1.6-0.8-2.6
	c0.3-1,0.9-0.3,1.8-0.6c1-0.1,2.1,0.3,2.6,1.2c0,0.1,0.1,0.2,0.3,0.3c0.3,0.2,0.7-0.2,0.9-0.6c0,0.3-0.2,0.7-0.5,0.9
	c0.4,0.3,1-0.2,1.2-0.7c0.4-0.8,0.8-1.6,1.2-2.4c0.2-0.4,0.4-1,0-1.3c-0.3,0.3-0.6,0.6-0.9,1c0-0.2-0.2-0.4-0.3-0.6
	c-0.3,0.2-0.6,0.5-0.7,0.9c0-0.3,0-0.6,0-1c-0.4,0.2-0.9,0.4-1.2,0.6c0-0.3-0.1-0.8-0.2-1.1c-0.3,0.2-0.7,0.3-1,0.3
	c0-0.3-0.2-0.6-0.3-0.9c0,0.5-0.8,0.7-1.1,0.3c-0.3-0.3-0.3-0.9-0.1-1.3c0.2-0.4,0.6-0.8,1-1.1c0,0.5,0,1,0,1.5c0.4,0,0.9-0.3,1-0.6
	c0,0.5,0.6,0.9,1,0.8c0.1-0.2,0.2-0.4,0.3-0.6c0.3,0.3,0.5,0.5,0.9,0.6c0.3,0,0.8-0.1,0.8-0.5c0,0.4,0.3,0.8,0.7,0.8
	c0.3,0,0.8-0.3,0.9-0.6c0,0.5,0,1,0,1.5c0-0.3,0.7-0.7,0.9-1c0.3-0.3,0.6-0.7,0.9-1.1c0.6-0.8,1-1.6,1.5-2.5c0-0.2,0.6-1,0.4-1.2
	c-0.1-0.3-1.1-0.1-1.3-0.2c-1.1-0.1-2.2-0.3-3.3-0.4c-0.4,0-0.9-0.1-1.2-0.3c-0.3-0.1-0.5-0.4-0.8-0.6s-0.9-0.3-1.2-0.5
	c-1.2-0.3-2.4-0.6-3.7-0.7c-0.3,0-0.7,0-1,0c-0.5,0-0.9,0.3-1.2,0.6c-1.8,0.8-4,0.1-5-1.5c0.3,0.9,0.6,1.6,1.2,2.2
	c-1.5,0.1-3.1-0.3-4.4-1c0.5,1,1.2,1.8,2.2,2.2c-1.5,0.5-3.1,0.3-4.5-0.3c0.5,0.9,1.3,1.5,2.2,1.5c-1.6,0.8-3.4,1-5.2,0.8
	c1,0.7,2.2,1,3.5,1c-1.6,0.7-3.4,1-5,0.9c0.9,0.6,2,0.9,3.1,1c-1.8,1.3-4.4,1.3-6.2,0.3c0.6,1.5,2.5,1.8,4.1,1.8
	c-1.8,0.9-4.3,0.5-5.5-1c0.5,1,1.1,2.2,2.2,2.5c1,0.3,2,0,3-0.6c-0.4,0.9-2.2,1.9-3,2.6c0.7,0.3,3.5,0.3,4.1,0.1
	c0,0.5-0.6,1.5-1.6,2.2c0.8,0.1,3.1-1.3,3.6-1.9l-1.2,4c0.5,0,3.1-2.1,3.6-2.2L87.5,90c0.8-0.6,4.4-3.1,5-3.5
	c-0.1,1.6-0.7,2.9-0.1,4.4c0.3-1.3,1-2.7,1.5-4c0,0.7,0.8,3.1,1.3,3.5L95.8,85.6z"/>
<polygon class="st9" points="85.1,96.8 83.4,95.5 81.4,96.2 82.1,94.2 80.8,92.5 82.9,92.5 84.2,90.8 84.8,92.8 86.9,93.5 
	85.1,94.7 "/>
<text transform="matrix(1 0 0 1 66.0422 104.5279)" class="st4 st5 st10">Winterfall</text>
<polygon class="st9" points="121.6,241.7 119.8,240.5 117.8,241.2 118.5,239.1 117.2,237.4 119.4,237.4 120.7,235.7 121.3,237.7 
	123.3,238.4 121.6,239.6 "/>
<text transform="matrix(1 0 0 1 84.5363 249.1852)" class="st4 st5 st10">King’s Landing</text>
<g>
	<polygon class="st11" points="123.4,232.3 127.5,222.4 122.9,226.7 122.9,220.3 120.5,226.7 118.3,218.9 115.9,226.7 113.7,220.3 
		113.7,226.5 109,222.4 113.1,232.3 	"/>
	<polygon class="st11" points="118.3,219.4 116.9,218 118.3,216.6 119.6,218 	"/>
	<polygon class="st11" points="122.8,221 122.1,219.8 123.2,219.1 123.9,220.2 	"/>
	<polygon class="st11" points="127.3,222.8 127.1,221.7 128.1,221.5 128.3,222.6 	"/>
	<polygon class="st11" points="108.2,222.6 108.4,221.5 109.4,221.7 109.3,222.8 	"/>
	<polygon class="st11" points="113.7,221 112.7,220.2 113.4,219.1 114.5,219.8 	"/>
</g>
<polyline class="st12" points="167.7,36.9 167.8,41.2 196.4,41.2 196.4,36.9 "/>
<text transform="matrix(1 0 0 1 174.8251 48.1947)" class="st13 st14">1000m</text>
<circle class="st9" cx="123.9" cy="189.1" r="1.3"/>
<circle class="st9" cx="57.9" cy="166.1" r="1.3"/>
<circle class="st9" cx="88.2" cy="291.3" r="1.3"/>
<circle class="st9" cx="74.9" cy="119.9" r="1.3"/>
<circle class="st9" cx="100" cy="215.3" r="1.3"/>
<circle class="st9" cx="136.4" cy="273.2" r="1.3"/>
<circle class="st9" cx="73.6" cy="207" r="1.3"/>
</svg>
